<svg width="28" height="28" viewBox="0 0 28 28" fill="none" xmlns="http://www.w3.org/2000/svg">
<path d="M12.0736 19.64C14.943 20.0306 17.4934 20.7469 19.2934 21.5761C20.196 21.992 20.8833 22.4241 21.3271 22.8368C21.7803 23.2584 21.9015 23.5827 21.8845 23.8051C21.8673 24.0274 21.6993 24.3115 21.1917 24.6022C20.6944 24.8869 19.9558 25.1247 19.0085 25.2888C17.1198 25.616 14.5135 25.6303 11.644 25.2397C8.77446 24.8491 6.22423 24.1329 4.42428 23.3036C3.52143 22.8876 2.83429 22.4557 2.39049 22.0429C1.93763 21.6216 1.81613 21.2979 1.83307 21.0756C1.85013 20.8533 2.01811 20.5683 2.52592 20.2776C3.02325 19.9928 3.76174 19.755 4.7091 19.5909C6.59778 19.2637 9.20406 19.2494 12.0736 19.64Z" stroke="#E1E0E8"/>
<path d="M6.83639 15.9802C8.06197 14.5655 9.01225 13.1548 9.56133 12.0278C9.83745 11.461 9.99908 10.9921 10.0551 10.6463C10.0829 10.4744 10.0799 10.3553 10.0666 10.2801C10.0602 10.2442 10.0521 10.223 10.0468 10.2121C10.042 10.2021 10.0387 10.1988 10.0381 10.1982C10.037 10.1972 10.0336 10.1947 10.0251 10.191C10.0143 10.1864 9.9936 10.1797 9.95926 10.1761C9.88727 10.1687 9.77477 10.176 9.61525 10.2203C9.29432 10.3095 8.86674 10.5208 8.35692 10.8612C7.3432 11.5381 6.09721 12.6625 4.8716 14.0772C3.64601 15.4918 2.6958 16.9026 2.14666 18.0296C1.87052 18.5964 1.70896 19.0652 1.65293 19.4111C1.62507 19.5832 1.62747 19.7028 1.64077 19.7781C1.64711 19.8138 1.65526 19.8351 1.66054 19.8461C1.66473 19.8547 1.66745 19.8581 1.6685 19.8592C1.66907 19.8598 1.67256 19.8629 1.68228 19.8671C1.69305 19.8717 1.71385 19.8784 1.74809 19.882C1.82012 19.8894 1.93307 19.8815 2.09274 19.8371C2.4137 19.7478 2.84126 19.5366 3.35107 19.1962C4.36481 18.5192 5.61081 17.3949 6.83639 15.9802Z" stroke="#E1E0E8"/>
<path d="M14.0697 0.500122C16.0375 0.500122 17.7437 2.35027 17.7439 4.77844C17.7438 7.20638 16.038 9.05579 14.0704 9.05579C12.1028 9.05567 10.3966 7.2063 10.3962 4.77844C10.396 2.35034 12.102 0.500237 14.0697 0.500122Z" stroke="#E1E0E8"/>
<path d="M14.4301 15.1283C15.4914 15.1542 16.4193 15.4806 17.0623 15.9622C17.7066 16.4449 18.031 17.0514 18.0073 17.6564C17.9836 18.2614 17.6124 18.85 16.9316 19.3004C16.2521 19.7498 15.3007 20.0313 14.2391 20.0054C13.1776 19.9795 12.25 19.6523 11.607 19.1706C10.9627 18.6879 10.6382 18.0822 10.6619 17.4773C10.6856 16.8723 11.0568 16.2827 11.7377 15.8323C12.4171 15.383 13.3687 15.1024 14.4301 15.1283Z" stroke="#E1E0E8"/>
<path d="M14.0707 9.7561C15.1327 9.7561 16.0733 10.0597 16.7348 10.5256C17.3976 10.9925 17.7446 11.5911 17.7446 12.1965C17.7445 12.8018 17.3974 13.3996 16.7348 13.8665C16.0733 14.3324 15.1327 14.637 14.0707 14.637C13.0089 14.6369 12.0691 14.3323 11.4077 13.8665C10.7449 13.3996 10.397 12.8019 10.3969 12.1965C10.3969 11.5911 10.7448 10.9925 11.4077 10.5256C12.0691 10.0599 13.0091 9.75614 14.0707 9.7561Z" stroke="#E1E0E8"/>
<path d="M16.4666 20.0001C19.3485 19.7067 21.9588 19.8089 23.8442 20.1993C24.79 20.3951 25.5254 20.6575 26.0181 20.9586C26.5207 21.2659 26.6833 21.5556 26.6963 21.778C26.709 22.0006 26.5815 22.3205 26.1193 22.7262C25.6667 23.1236 24.9697 23.5318 24.0572 23.9168C22.2381 24.6843 19.6697 25.3137 16.7879 25.6071C13.906 25.9004 11.2957 25.7982 9.41026 25.4079C8.46448 25.212 7.72906 24.9496 7.23644 24.6485C6.73347 24.341 6.57092 24.0506 6.55817 23.8281C6.54562 23.6056 6.67341 23.2863 7.13518 22.8809C7.58779 22.4835 8.28479 22.0753 9.19729 21.6903C11.0164 20.9228 13.5848 20.2934 16.4666 20.0001Z" stroke="#E1E0E8"/>
<path d="M21.1701 15.9867C22.3957 17.4014 23.6413 18.5253 24.6544 19.2017C25.164 19.5418 25.5912 19.7527 25.9118 19.8416C26.0707 19.8856 26.1828 19.8934 26.2547 19.886C26.2885 19.8824 26.3095 19.8756 26.3204 19.871C26.3293 19.8671 26.3331 19.864 26.3341 19.863C26.3347 19.8625 26.3379 19.8593 26.3428 19.8492C26.348 19.8382 26.3561 19.817 26.3624 19.781C26.3756 19.7057 26.3785 19.5865 26.3505 19.4144C26.2941 19.0682 26.1314 18.5996 25.8551 18.0326C25.3054 16.905 24.3554 15.4931 23.1298 14.0784C21.9042 12.6637 20.6579 11.5406 19.6448 10.8642C19.1354 10.5241 18.7087 10.3126 18.3881 10.2236C18.2287 10.1794 18.1158 10.1716 18.0439 10.1791C18.0097 10.1827 17.989 10.1895 17.9782 10.1941C17.9684 10.1984 17.965 10.2015 17.9645 10.2021C17.9635 10.203 17.9602 10.2068 17.9558 10.2159C17.9506 10.227 17.9424 10.2485 17.9362 10.284C17.9231 10.3594 17.9215 10.4788 17.9495 10.6508C18.0058 10.997 18.1677 11.4662 18.4442 12.0333C18.9939 13.1609 19.9445 14.572 21.1701 15.9867Z" stroke="#E1E0E8"/>
<ellipse cx="14.2608" cy="27.265" rx="9.67611" ry="0.735052" fill="#BC5536"/>
</svg>
