<svg width="49" height="48" viewBox="0 0 49 48" fill="none" xmlns="http://www.w3.org/2000/svg">
<path d="M28.8896 22.4877C39.9067 9.0002 11.4539 -5.25011 4.99039 11C-1.47314 27.2501 27.9649 24.7801 25.9401 33C23.9153 41.2198 12.8638 46 3.88538 36.5" stroke="#BC5536" stroke-width="7" stroke-linecap="round"/>
<path d="M30.2938 22.0588C26.312 24.4149 21.3919 28.7082 21.0197 35.0588C21.0197 38.8824 21.6821 43.4706 24.9943 45H41.5553C43.2111 43.2083 42.0275 41.7764 40.9244 41.62C39.8212 41.4636 38.3379 41.3908 36.7856 41.62C37.9518 37.2309 38.141 34.1968 34.9309 32C35.378 30.8007 34.4714 31.1857 35.6923 30.7C36.9394 32.1777 37.9671 32.39 38.9055 33.5294C40.5802 34.9252 43.6923 31.9006 44.8675 31.2353C46.0427 30.57 46.1565 29.076 44.8675 28.75C43.3085 28.3556 42.6737 28.3448 41.1518 28.75C40.0953 27.5539 39.796 26.8687 40.2304 25.1176C42.0576 24.8088 43.0775 24.5607 44.8675 23.5882C47.1426 22.2423 48.0693 19.5909 48.8422 19C49.6151 18.4091 47.3944 15.5773 45.53 13.6471C44.4598 11.7216 43.7959 10.7388 41.5553 10.5882C40.1271 7.89674 39.2221 6.5337 36.2558 6C36.233 8.64837 36.0852 10.1979 37.5807 12.1176C36.0464 14.676 36.0415 16.1726 32.9395 18.2353C32.0296 18.8145 30.8187 20.0031 30.2938 22.0588Z" fill="#BC5536"/>
<path d="M45.9499 27.0397L45.1561 27.0404C45.1089 26.8497 45.1089 26.6589 44.9985 26.6589C44.8881 26.6589 44.8881 26.7861 44.825 27.0397H44.0787C43.8535 27.7591 44.1708 28.3756 44.5491 28.6299C45.0314 28.9541 44.9985 28.9478 45.4399 28.6299C45.7339 28.4182 46.1493 27.7398 45.9499 27.0397Z" stroke="#BC5536"/>
</svg>
